<svg version="1.1" xmlns="http://www.w3.org/2000/svg" xmlns:xlink="http://www.w3.org/1999/xlink" width="155.39927" height="155.39927" viewBox="0,0,155.39927,155.39927"><g transform="translate(-173.01445,-113.01445)"><g data-paper-data="{&quot;isPaintingLayer&quot;:true}" fill-rule="nonzero" stroke-linejoin="miter" stroke-miterlimit="10" stroke-dasharray="" stroke-dashoffset="0" style="mix-blend-mode: normal"><path d="M248.79119,150.99403c0.02147,2.05891 0.80194,-4.05013 0.80194,-4.05013c0,0 1.50029,-0.74401 2.77665,0.54617c0.85103,0.86025 1.86677,1.9944 2.93154,3.28265c1.58556,1.91833 8.12911,-0.51856 8.12911,-0.51856c0,0 0.47286,1.78011 0.28362,2.5316c-0.19942,0.79192 -1.45124,2.10503 -1.45124,2.10503l6.35457,1.13922l-4.07401,4.52152c0,0 4.47853,3.89079 6.61366,8.23056c1.87562,3.81228 1.44986,8.13296 1.34463,8.24878c-0.63708,0.70119 -3.19574,1.04653 -5.97198,-1.17598c-3.82528,-3.06235 -8.04434,-9.14892 -8.04434,-9.14892c0,0 0.08534,3.0996 -0.20442,4.55806c-0.2874,1.44658 -1.52711,4.15738 -1.52711,4.15738c0,0 -5.01853,-5.02352 -9.02222,-6.69507c-1.27389,-0.53185 -0.68248,6.72007 -2.00677,6.50445c-1.49575,-0.24353 -4.9082,-7.93626 -6.35133,-8.2741c-0.55038,-0.12885 -0.42804,3.51468 -1.59698,5.655c-1.00437,1.83896 -3.35839,2.21281 -3.35839,2.21281c0,0 -1.42066,-4.48022 -2.34079,-4.71737c-1.20908,-0.31161 -9.70667,3.76402 -12.10761,2.66819c-1.9147,-0.87389 2.09041,-6.99539 1.89085,-6.99331c-1.30258,0.01359 -3.992,1.70911 -7.18938,2.05309c-3.58046,0.38519 -7.62494,-0.57737 -7.62494,-0.57737c0,0 1.29046,-5.21003 4.1379,-7.6302c2.51416,-2.1369 6.65291,-1.45986 6.30662,-2.25171c-1.28611,-2.94092 -7.01297,-4.26535 -7.01297,-4.26535c0,0 5.09132,-5.97611 15.35406,-6.08314c4.54378,-0.04739 5.25727,0.8179 5.25727,0.8179l1.2218,-4.18114c0,0 6.25528,1.41717 9.76595,3.19859c4.10215,2.08156 6.70164,2.92021 6.71427,4.13139z" fill="#792800" stroke="#6a2300" stroke-width="1.5" stroke-linecap="butt"/><path d="M237.54532,159.43787c0,0 -3.85847,2.76499 -5.56484,3.44463c-1.24219,0.49476 -3.7304,0.25762 -3.7304,0.25762c0,0 0.24513,-2.18134 1.25239,-3.1571c1.07804,-1.04433 5.01793,-2.91714 5.01793,-2.91714c0,0 -3.81221,0.36416 -5.5284,0.03501c-1.67886,-0.322 -4.65921,-1.98893 -4.65921,-1.98893c0,0 3.71736,-1.87161 5.82886,-2.12285c2.10571,-0.25056 6.82279,0.61745 6.82279,0.61745" fill="none" stroke="#6a2300" stroke-width="1.5" stroke-linecap="round"/><path d="M261.16592,154.89948c0,0 -5.94306,1.02996 -8.2172,0.37375c-2.11698,-0.61086 -4.15843,-4.36504 -4.15843,-4.36504" fill="none" stroke="#6a2300" stroke-width="1.5" stroke-linecap="round"/><path d="M173.01446,268.41372v-155.39927h155.39927v155.39927z" fill="none" stroke="none" stroke-width="0" stroke-linecap="butt"/></g></g></svg>